<svg xmlns="http://www.w3.org/2000/svg"  viewBox="0 0 100 100" width="100px" height="100px"><path fill="#f57c00" d="M31.631,71.16L14.498,57.674l8.511-15.808l24.428,9.506L31.631,71.16z"/><path fill="#1f212b" d="M31.63,72.159c-0.217,0-0.435-0.07-0.618-0.214L13.879,58.46c-0.382-0.301-0.492-0.832-0.262-1.26 l8.511-15.808c0.238-0.445,0.771-0.641,1.243-0.458L47.8,50.44c0.296,0.115,0.52,0.364,0.603,0.672 c0.083,0.308,0.014,0.636-0.185,0.884L32.412,71.783C32.215,72.03,31.924,72.159,31.63,72.159z M15.777,57.408L31.469,69.76 l14.337-17.949L23.47,43.119L15.777,57.408z"/><path fill="#1e88e5" d="M84.468,34.903l-1.326,40.899L55.949,86.745l-16.36-10.612l23.876-24.761L84.468,34.903z"/><path fill="#1f212b" d="M55.949,87.745c-0.19,0-0.38-0.055-0.544-0.161l-16.36-10.612c-0.25-0.162-0.415-0.429-0.449-0.725 c-0.034-0.297,0.066-0.594,0.274-0.809l23.876-24.761c0.032-0.033,0.066-0.064,0.103-0.093l21.002-16.469 c0.306-0.239,0.724-0.28,1.069-0.105c0.347,0.176,0.56,0.536,0.547,0.924l-1.326,40.9c-0.013,0.396-0.258,0.747-0.626,0.896 L56.322,87.673C56.202,87.722,56.075,87.745,55.949,87.745z M41.151,75.954l14.907,9.669l26.105-10.505l1.235-38.106L64.138,52.116 L41.151,75.954z"/><path fill="#2962ff" d="M84.468,34.903L62.912,60.327L53.075,28.38l9.397-11.275L84.468,34.903z"/><path fill="#1f212b" d="M62.912,61.327c-0.066,0-0.134-0.007-0.201-0.021c-0.357-0.073-0.647-0.336-0.755-0.686 l-9.837-31.946c-0.1-0.323-0.028-0.675,0.188-0.935l9.396-11.275c0.351-0.42,0.973-0.482,1.397-0.137l21.996,17.797 c0.209,0.169,0.342,0.416,0.367,0.684c0.024,0.268-0.06,0.535-0.233,0.74L63.675,60.974C63.482,61.2,63.202,61.327,62.912,61.327z M54.19,28.604l9.14,29.683l19.713-23.25L62.608,18.503L54.19,28.604z"/><path fill="#ab47bc" d="M67.999,43.635L47.769,74.697L19.471,84.976l4.533-15.918l5.858-19.676L67.999,43.635z"/><path fill="#1f212b" d="M19.471,85.976c-0.249,0-0.493-0.093-0.682-0.269c-0.275-0.256-0.383-0.645-0.28-1.005l4.533-15.917 l5.861-19.688c0.111-0.372,0.426-0.646,0.81-0.704l38.137-5.748c0.392-0.061,0.777,0.117,0.99,0.448 c0.213,0.332,0.212,0.757-0.003,1.087l-20.23,31.063c-0.118,0.182-0.292,0.32-0.497,0.394L19.813,85.915 C19.701,85.956,19.586,85.976,19.471,85.976z M30.639,50.277l-5.676,19.066l-3.994,14.023l26.145-9.496l18.832-28.916 L30.639,50.277z"/><path fill="#e91e63" d="M29.862,49.383l-16.139-5.416L24.004,16l22.108,2.653l21.887,24.982L29.862,49.383z"/><path fill="#1f212b" d="M29.862,50.383c-0.108,0-0.215-0.018-0.318-0.052l-16.138-5.416 c-0.256-0.086-0.466-0.272-0.583-0.516c-0.117-0.244-0.13-0.524-0.037-0.778l10.281-27.967c0.16-0.435,0.595-0.706,1.058-0.647 l22.108,2.653c0.245,0.029,0.47,0.148,0.633,0.333l21.887,24.982c0.241,0.275,0.313,0.66,0.188,1.003 c-0.126,0.343-0.429,0.591-0.79,0.645l-38.138,5.749C29.961,50.379,29.912,50.383,29.862,50.383z M15.017,43.347l14.934,5.011 l36.091-5.439L45.613,19.6L24.67,17.087L15.017,43.347z"/><path fill="#444445" d="M27.803,71C27.36,71,27,70.64,27,70.197V29.803C27,29.36,27.36,29,27.803,29h40.394 C68.64,29,69,29.36,69,29.803v40.394C69,70.64,68.64,71,68.197,71H27.803z"/><path fill="#1f212b" d="M68,30v40H28V30H68 M68.197,28H27.803C26.807,28,26,28.807,26,29.803v40.394 C26,71.193,26.807,72,27.803,72h40.394C69.193,72,70,71.193,70,70.197V29.803C70,28.807,69.193,28,68.197,28L68.197,28z"/><rect width="16" height="3" x="32" y="64" fill="#fff"/><g><polygon fill="#fff" points="42.969,37.969 42.969,34 33.063,34 33.063,37.969 36.031,37.969 36.031,48.031 33.063,48.031 33.063,51.814 43,51.814 43,48.031 39.917,48.031 39.917,37.969"/></g><g><path fill="#fff" d="M51.528,52.257c-3.316,0-5.078-1.942-5.748-2.738l2.496-2.839c0.451,0.499,1.705,1.818,3.252,1.818 c1.99,0,2.5-1.921,2.5-3.026V34H58l-0.061,11.403c0,1.104,0,2.874-1.326,4.643C55.684,51.284,53.517,52.257,51.528,52.257z"/></g><g><path fill="#1f212b" d="M72.191,76.33c-0.197,0-0.385-0.118-0.463-0.313c-0.104-0.256,0.019-0.547,0.275-0.65l6.465-2.624 l0.142-3.889c0.01-0.275,0.213-0.481,0.519-0.481c0.275,0.011,0.491,0.242,0.481,0.519l-0.153,4.212 c-0.008,0.196-0.13,0.371-0.312,0.444l-6.767,2.745C72.317,76.318,72.254,76.33,72.191,76.33z"/></g><g><path fill="#1f212b" d="M79.264,65.159c-0.006,0-0.012,0-0.019,0c-0.275-0.011-0.491-0.242-0.481-0.519l0.396-10.914 c0.01-0.275,0.213-0.47,0.519-0.481c0.275,0.011,0.491,0.242,0.481,0.519l-0.396,10.914C79.754,64.947,79.532,65.159,79.264,65.159 z"/></g><g><path fill="#1f212b" d="M43.979,22.84c-0.017,0-0.035-0.001-0.052-0.003l-9.044-0.944c-0.275-0.028-0.474-0.274-0.445-0.549 c0.028-0.275,0.269-0.479,0.549-0.445l9.044,0.944c0.275,0.028,0.474,0.274,0.445,0.549C44.449,22.649,44.232,22.84,43.979,22.84z"/></g><g><path fill="#1f212b" d="M31.772,21.548c-0.017,0-0.034-0.001-0.051-0.002l-5.218-0.526 c-0.274-0.028-0.475-0.273-0.447-0.548c0.028-0.274,0.269-0.472,0.548-0.447l5.218,0.526c0.274,0.028,0.475,0.273,0.447,0.548 C32.243,21.356,32.026,21.548,31.772,21.548z"/></g></svg>